<?xml version="1.0" encoding="UTF-8" standalone="no"?>
<svg version="1.0" baseProfile="full" width="1208" height="408"
	xmlns="http://www.w3.org/2000/svg"
	xmlns:xlink="http://www.w3.org/1999/xlink"
>
	<style type="text/css"><![CDATA[
		#base {
			fill: #333333;
			}
		.key .mask {
			fill: #eeeeee;
			}
	]]></style>
	<defs>
		<g id="key" class="key">
			<rect class="mask" x="2" y="2" width="76" height="76" rx="6" ry="6" />
		</g>
		<g id="key5" class="key">
			<rect class="mask" x="2" y="2" width="96" height="76" rx="6" ry="6" />
		</g>
		<g id="key6" class="key">
			<rect class="mask" x="2" y="2" width="116" height="76" rx="6" ry="6" />
		</g>
		<g id="key7" class="key">
			<rect class="mask" x="2" y="2" width="136" height="76" rx="6" ry="6" />
		</g>
		<g id="key8" class="key">
			<rect class="mask" x="2" y="2" width="156" height="76" rx="6" ry="6" />
		</g>
		<g id="key9" class="key">
			<rect class="mask" x="2" y="2" width="176" height="76" rx="6" ry="6" />
		</g>
		<g id="key11" class="key">
			<rect class="mask" x="2" y="2" width="216" height="76" rx="6" ry="6" />
		</g>
		<g id="key25" class="key">
			<rect class="mask" x="2" y="2" width="496" height="76" rx="6" ry="6" />
		</g>
		<linearGradient id="gr-tr" x1="25%" y1="65%" x2="0%" y2="0%">
			<stop offset="15%" style="stop-color:#aaaaaa;stop-opacity:1" />
			<stop offset="50%" style="stop-color:#dddddd;stop-opacity:1" />
			<stop offset="85%" style="stop-color:#d4d4d4;stop-opacity:1" />
		</linearGradient>
		<linearGradient id="gr-tl" x1="0%" y1="65%" x2="25%" y2="0%">
			<stop offset="50%" style="stop-color:#d4d4d4;stop-opacity:1" />
			<stop offset="75%" style="stop-color:#eeeeee;stop-opacity:1" />
			<stop offset="100%" style="stop-color:#d4d4d4;stop-opacity:1" />
		</linearGradient>
		<linearGradient id="gr-bl" x1="30%" y1="0%" x2="95%" y2="80%">
			<stop offset="25%" style="stop-color:#d4d4d4;stop-opacity:1" />
			<stop offset="50%" style="stop-color:#dddddd;stop-opacity:1" />
			<stop offset="75%" style="stop-color:#aaaaaa;stop-opacity:1" />
		</linearGradient>
		<linearGradient id="gr-br" x1="100%" y1="0%" x2="30%" y2="100%">
			<stop offset="40%" style="stop-color:#aaaaaa;stop-opacity:1" />
			<stop offset="60%" style="stop-color:#b4b4b4;stop-opacity:1" />
			<stop offset="80%" style="stop-color:#aaaaaa;stop-opacity:1" />
		</linearGradient>
		<linearGradient id="gr-face" x1="0%" y1="25%" x2="100%" y2="75%">
			<stop offset="0%" style="stop-color:#cccccc;stop-opacity:1" />
			<stop offset="56%" style="stop-color:#eeeeee;stop-opacity:1" />
			<stop offset="100%" style="stop-color:#dddddd;stop-opacity:1" />
		</linearGradient>
	</defs>
	<g transform="translate(2, 2)">
		<rect id="base" x="-2" y="-2" width="1204" height="404" rx="10" ry="10" />
		<g> <!-- row 12345 -->
			<g transform="translate(0, 0)"><use xlink:href="#key" />
			</g>
			<g transform="translate(80, 0)"><use xlink:href="#key" />
			</g>
			<g transform="translate(160, 0)"><use xlink:href="#key" />
			</g>
			<g transform="translate(240, 0)"><use xlink:href="#key" />
			</g>
			<g transform="translate(320, 0)"><use xlink:href="#key" />
			</g>
			<g transform="translate(400, 0)"><use xlink:href="#key" />
			</g>
			<g transform="translate(480, 0)"><use xlink:href="#key" />
			</g>
			<g transform="translate(560, 0)"><use xlink:href="#key" />
			</g>
			<g transform="translate(640, 0)"><use xlink:href="#key" />
			</g>
			<g transform="translate(720, 0)"><use xlink:href="#key" />
			</g>
			<g transform="translate(800, 0)"><use xlink:href="#key" />
			</g>
			<g transform="translate(880, 0)"><use xlink:href="#key" />
			</g>
			<g transform="translate(960, 0)"><use xlink:href="#key" />
			</g>
			<g transform="translate(1040, 0)"><use xlink:href="#key8" />
			</g>
		</g>
		<g> <!-- row qwerty -->
			<g transform="translate(0, 80)"><use xlink:href="#key6" />
			</g>
			<g transform="translate(120, 80)"><use xlink:href="#key" />
			</g>
			<g transform="translate(200, 80)"><use xlink:href="#key" />
			</g>
			<g transform="translate(280, 80)"><use xlink:href="#key" />
			</g>
			<g transform="translate(360, 80)"><use xlink:href="#key" />
			</g>
			<g transform="translate(440, 80)"><use xlink:href="#key" />
			</g>
			<g transform="translate(520, 80)"><use xlink:href="#key" />
			</g>
			<g transform="translate(600, 80)"><use xlink:href="#key" />
			</g>
			<g transform="translate(680, 80)"><use xlink:href="#key" />
			</g>
			<g transform="translate(760, 80)"><use xlink:href="#key" />
			</g>
			<g transform="translate(840, 80)"><use xlink:href="#key" />
			</g>
			<g transform="translate(920, 80)"><use xlink:href="#key" />
			</g>
			<g transform="translate(1000, 80)"><use xlink:href="#key" />
			</g>
			<g transform="translate(1080, 80)"><use xlink:href="#key6" />
			</g>
		</g>
		<g> <!-- row asdfg -->
			<g transform="translate(0, 160)"><use xlink:href="#key7" />
			</g>
			<g transform="translate(140, 160)"><use xlink:href="#key" />
			</g>
			<g transform="translate(220, 160)"><use xlink:href="#key" />
			</g>
			<g transform="translate(300, 160)"><use xlink:href="#key" />
			</g>
			<g transform="translate(380, 160)"><use xlink:href="#key" />
			</g>
			<g transform="translate(460, 160)"><use xlink:href="#key" />
			</g>
			<g transform="translate(540, 160)"><use xlink:href="#key" />
			</g>
			<g transform="translate(620, 160)"><use xlink:href="#key" />
			</g>
			<g transform="translate(700, 160)"><use xlink:href="#key" />
			</g>
			<g transform="translate(780, 160)"><use xlink:href="#key" />
			</g>
			<g transform="translate(860, 160)"><use xlink:href="#key" />
			</g>
			<g transform="translate(940, 160)"><use xlink:href="#key" />
			</g>
			<g transform="translate(1020, 160)"><use xlink:href="#key9" />
			</g>
		</g>
		<g> <!-- row zxcv -->
			<g transform="translate(0, 240)"><use xlink:href="#key9" />
			</g>
			<g transform="translate(180, 240)"><use xlink:href="#key" />
			</g>
			<g transform="translate(260, 240)"><use xlink:href="#key" />
			</g>
			<g transform="translate(340, 240)"><use xlink:href="#key" />
			</g>
			<g transform="translate(420, 240)"><use xlink:href="#key" />
			</g>
			<g transform="translate(500, 240)"><use xlink:href="#key" />
			</g>
			<g transform="translate(580, 240)"><use xlink:href="#key" />
			</g>
			<g transform="translate(660, 240)"><use xlink:href="#key" />
			</g>
			<g transform="translate(740, 240)"><use xlink:href="#key" />
			</g>
			<g transform="translate(820, 240)"><use xlink:href="#key" />
			</g>
			<g transform="translate(900, 240)"><use xlink:href="#key" />
			</g>
			<g transform="translate(980, 240)"><use xlink:href="#key11" />
			</g>
		</g>
		<g> <!-- row space -->
			<g transform="translate(0, 320)"><use xlink:href="#key5" />
			</g>
			<g transform="translate(100, 320)"><use xlink:href="#key5" />
			</g>
			<g transform="translate(200, 320)"><use xlink:href="#key5" />
			</g>
			<g transform="translate(300, 320)"><use xlink:href="#key25" />
			</g>
			<g transform="translate(800, 320)"><use xlink:href="#key5" />
			</g>
			<g transform="translate(900, 320)"><use xlink:href="#key5" />
			</g>
			<g transform="translate(1000, 320)"><use xlink:href="#key5" />
			</g>
			<g transform="translate(1100, 320)"><use xlink:href="#key5" />
			</g>
		</g>
	</g>
</svg>
